<svg width="241" height="67" viewBox="0 0 241 67" fill="none" xmlns="http://www.w3.org/2000/svg">
<path fill-rule="evenodd" clip-rule="evenodd" d="M97.069 25.1075V29.2725C95.9672 30.4897 94.1813 31.1553 92.0537 31.1553C88.5583 31.1553 86.1836 28.7971 86.1836 24.7272C86.1836 20.7711 88.5393 18.375 92.0537 18.375C94.1243 18.375 95.7583 19.1355 96.7839 20.4099C96.651 20.9043 96.1761 21.2087 95.7201 21.3228C94.9982 20.2768 93.7825 19.6683 92.0537 19.6683C89.356 19.6683 87.7034 21.551 87.7034 24.7272C87.7034 27.9983 89.3751 29.8431 92.0537 29.8431C93.3834 29.8431 94.5613 29.5387 95.5491 28.8921V25.3738C95.948 24.9933 96.556 24.9364 97.069 25.1075Z" fill="#2C2A29"/>
<path fill-rule="evenodd" clip-rule="evenodd" d="M103.7 22.7103C102.142 22.7103 101.363 22.8242 100.736 23.1667V30.9641H99.2734V22.2537C100.337 21.6641 101.686 21.3789 102.845 21.3789C103.415 21.3789 103.738 21.474 103.966 21.55C103.966 21.9875 103.909 22.4249 103.7 22.7103Z" fill="#2C2A29"/>
<path fill-rule="evenodd" clip-rule="evenodd" d="M113.277 21.4375V30.1479C112.556 30.6615 110.466 31.0229 109.288 31.0229C107.065 31.0229 105.641 30.2051 105.641 27.9227V21.7227C106.077 21.5135 106.533 21.4375 107.103 21.4375V27.7137C107.103 29.1019 107.92 29.7294 109.63 29.7294C110.447 29.7294 111.207 29.5966 111.815 29.4252V21.7038C112.214 21.4945 112.783 21.4375 113.277 21.4375Z" fill="#2C2A29"/>
<path fill-rule="evenodd" clip-rule="evenodd" d="M122.659 26.133C122.659 24.155 121.558 22.6146 118.936 22.6146C118.404 22.6146 117.853 22.6906 117.283 22.8236V29.4993C117.853 29.7083 118.556 29.8795 119.316 29.8795C121.387 29.8795 122.659 28.7765 122.659 26.133ZM124.141 26.3612C124.141 29.0808 122.811 31.1538 119.962 31.1538C119.069 31.1538 118.043 30.8686 117.283 30.4122V34.2536C116.979 34.5392 116.257 34.7483 115.82 34.7483V21.8919C116.428 21.6257 117.663 21.3594 118.841 21.3594C122.127 21.3594 124.141 23.0709 124.141 26.3612Z" fill="#2C2A29"/>
<path fill-rule="evenodd" clip-rule="evenodd" d="M133.226 26.212C133.226 23.9487 132.086 22.6365 130.129 22.6365C128.21 22.6365 127.052 23.9487 127.052 26.212C127.052 28.6083 128.191 29.8445 130.129 29.8445C132.086 29.8445 133.226 28.6083 133.226 26.212ZM125.551 26.212C125.551 23.245 127.393 21.3242 130.129 21.3242C132.922 21.3242 134.707 23.2831 134.707 26.212C134.707 29.2739 132.903 31.1568 130.129 31.1568C127.337 31.1568 125.551 29.2168 125.551 26.212Z" fill="#2C2A29"/>
<path fill-rule="evenodd" clip-rule="evenodd" d="M71.5525 39.9945C68.0021 40.8506 64.5277 41.9186 61.0876 43.141C60.5961 43.3269 60.0624 43.0855 59.9322 42.6137C59.6553 41.6087 59.4096 40.8355 59.136 39.8339C59.0213 39.4136 59.2671 38.9566 59.7034 38.7975C63.1446 37.6237 66.6184 36.7014 70.1723 35.9363C70.5641 35.856 70.9763 36.144 71.1175 36.5852C71.4047 37.4834 71.6546 38.2051 71.934 39.1071C72.0607 39.516 71.893 39.9124 71.5525 39.9945ZM53.7419 38.0774C53.5318 36.9964 53.3197 36.1845 53.1136 35.106C53.0334 34.6843 53.2632 34.2055 53.6466 34.0254C58.9022 31.7172 64.4443 30.3205 70.1361 29.6003C70.5108 29.5515 70.8896 29.828 71.0292 30.2414C71.3294 31.1308 71.5857 31.8483 71.8773 32.7419C72.018 33.173 71.8306 33.5914 71.4627 33.6512C65.6755 34.5725 60.0341 36.1177 54.6957 38.5447C54.2668 38.7522 53.8319 38.5395 53.7419 38.0774ZM56.3017 25.7921C59.8219 24.78 63.3344 24.1228 66.97 23.6777C67.3668 23.6351 67.7543 23.8912 67.8978 24.2817C68.2354 25.2015 68.5103 25.9345 68.8407 26.8595C68.9975 27.2984 68.7643 27.736 68.3378 27.7927C64.6176 28.3396 61.012 29.0913 57.4154 30.1899C56.9767 30.3347 56.5449 30.1145 56.4341 29.6878C56.1723 28.6784 55.9345 27.9028 55.6773 26.8966C55.5618 26.4445 55.8431 25.9349 56.3017 25.7921ZM63.2484 17.3438C54.3761 17.3438 47.1836 24.534 47.1836 33.4035C47.1836 42.2729 54.3761 49.4632 63.2484 49.4632C72.1207 49.4632 79.3132 42.2729 79.3132 33.4035C79.3132 24.534 72.1207 17.3438 63.2484 17.3438Z" fill="#2C2A29"/>
<path fill-rule="evenodd" clip-rule="evenodd" d="M92.6042 44.426C92.6042 43.4182 91.9573 42.9997 90.6828 42.9997H89.1606V45.8524H90.6636C91.9003 45.8524 92.6042 45.3579 92.6042 44.426ZM90.3783 37.9979C89.9789 37.9979 89.5603 38.0358 89.1606 38.093V40.6223H90.4545C91.5958 40.6223 92.1285 40.147 92.1285 39.3291C92.1285 38.5494 91.5769 37.9979 90.3783 37.9979ZM95.7241 44.5593C95.7241 46.7844 93.4793 48.2678 90.93 48.2678H86.25V35.9819C87.8101 35.7537 88.9896 35.6016 90.3783 35.6016C92.9466 35.6016 95.0013 36.7997 95.0013 38.8918C95.0013 40.09 94.3734 40.8886 93.251 41.3262C94.9823 41.8205 95.7241 42.8667 95.7241 44.5593Z" fill="#2C2A29"/>
<path fill-rule="evenodd" clip-rule="evenodd" d="M102.428 45.8319V44.1963H101.876C100.583 44.1963 99.4031 44.4816 99.4031 45.3755C99.4031 46.0601 99.8598 46.3074 100.792 46.3074C101.534 46.3074 102.143 46.0792 102.428 45.8319ZM105.225 42.2755V47.2774C104.197 48.0571 102.542 48.4755 100.297 48.4755C98.2998 48.4755 96.6445 47.6577 96.6445 45.8508C96.6445 43.1312 99.289 42.4658 102.428 42.3707C102.371 41.1915 101.895 40.8871 100.849 40.8871C100.297 40.8871 98.8325 41.1344 98.6423 41.1344C98.1856 41.1344 97.8243 40.8492 97.5198 40.0123L97.2914 39.3275C98.471 38.8903 99.6316 38.5859 100.887 38.5859C103.627 38.5859 105.225 39.613 105.225 42.2755Z" fill="#2C2A29"/>
<path fill-rule="evenodd" clip-rule="evenodd" d="M115.704 41.499V48.2696H112.85V42.507C112.85 41.499 112.184 40.9856 111.024 40.9856C110.586 40.9856 110.168 41.0428 109.806 41.1378V48.2696H106.934L106.952 39.8066C108.151 39.0077 110.091 38.5703 111.67 38.5703C113.858 38.5703 115.704 39.6544 115.704 41.499Z" fill="#2C2A29"/>
<path fill-rule="evenodd" clip-rule="evenodd" d="M116.938 43.6286C116.938 40.3006 119.259 38.5508 122.264 38.5508C123.101 38.5508 123.863 38.6651 124.776 38.8743C124.662 39.8251 124.262 40.6619 123.825 41.1374C123.501 41.0424 122.968 40.966 122.664 40.966C120.743 40.966 119.962 41.9551 119.962 43.4577C119.962 44.9791 120.685 45.9108 122.493 45.9108C122.987 45.9108 123.558 45.8159 124.262 45.5686L124.776 47.8508C123.729 48.2692 122.645 48.4595 121.789 48.4595C118.859 48.4595 116.938 46.7097 116.938 43.6286Z" fill="#2C2A29"/>
<path fill-rule="evenodd" clip-rule="evenodd" d="M132.386 43.4956C132.386 41.9362 131.625 41.0233 130.294 41.0233C129 41.0233 128.201 41.9362 128.201 43.4956C128.201 45.1311 128.981 45.9872 130.294 45.9872C131.625 45.9872 132.386 45.1311 132.386 43.4956ZM125.328 43.4956C125.328 40.4528 127.383 38.5508 130.294 38.5508C133.318 38.5508 135.259 40.5288 135.259 43.4956C135.259 46.5575 133.299 48.4595 130.294 48.4595C127.269 48.4595 125.328 46.5004 125.328 43.4956Z" fill="#2C2A29"/>
<path fill-rule="evenodd" clip-rule="evenodd" d="M136.879 36.0573C137.545 35.5628 138.99 35.1445 139.751 35.1445V48.2672H136.879V36.0573Z" fill="#2C2A29"/>
<path fill-rule="evenodd" clip-rule="evenodd" d="M148.425 43.4956C148.425 41.9362 147.664 41.0233 146.333 41.0233C145.039 41.0233 144.24 41.9362 144.24 43.4956C144.24 45.1311 145.02 45.9872 146.333 45.9872C147.664 45.9872 148.425 45.1311 148.425 43.4956ZM141.367 43.4956C141.367 40.4528 143.422 38.5508 146.333 38.5508C149.357 38.5508 151.298 40.5288 151.298 43.4956C151.298 46.5575 149.338 48.4595 146.333 48.4595C143.308 48.4595 141.367 46.5004 141.367 43.4956Z" fill="#2C2A29"/>
<path fill-rule="evenodd" clip-rule="evenodd" d="M167.299 41.499V48.2696H164.465V42.507C164.465 41.499 163.818 40.9856 162.676 40.9856C162.144 40.9856 161.63 41.0998 161.211 41.2708C161.363 41.6893 161.44 42.1456 161.44 42.6401V48.2696H158.605V42.507C158.605 41.499 157.958 40.9856 156.817 40.9856C156.379 40.9856 155.961 41.0428 155.599 41.1378V48.2696H152.727L152.746 39.8066C153.887 39.0077 155.675 38.5703 157.178 38.5703C158.377 38.5703 159.404 38.9696 160.146 39.6163C161.116 38.9886 162.467 38.5703 163.609 38.5703C165.682 38.5703 167.299 39.6731 167.299 41.499Z" fill="#2C2A29"/>
<path fill-rule="evenodd" clip-rule="evenodd" d="M175.993 43.3605C175.993 41.6106 175.079 40.9831 173.615 40.9831C173.025 40.9831 172.549 41.0974 172.131 41.2875V46.0609C172.644 46.1371 173.139 46.1752 173.595 46.1752C175.27 46.1752 175.993 44.8819 175.993 43.3605ZM178.827 42.999C178.827 46.4604 176.773 48.4574 173.424 48.4574C171.788 48.4574 170.209 48.1531 169.258 47.7156V36.0573C169.924 35.5628 171.389 35.1445 172.131 35.1445V39.6519C172.949 38.9482 173.938 38.5678 174.832 38.5678C177.667 38.5678 178.827 40.5267 178.827 42.999Z" fill="#2C2A29"/>
<path fill-rule="evenodd" clip-rule="evenodd" d="M180.445 38.8363C180.844 38.6653 181.338 38.5702 181.89 38.5702C182.442 38.5702 182.918 38.6653 183.317 38.8363V48.2695H180.445V38.8363ZM180.406 35.8314C180.406 35.0328 181.072 34.3672 181.871 34.3672C182.689 34.3672 183.355 35.0138 183.355 35.8314C183.355 36.6111 182.689 37.2959 181.871 37.2959C181.072 37.2959 180.406 36.6494 180.406 35.8314Z" fill="#2C2A29"/>
<path fill-rule="evenodd" clip-rule="evenodd" d="M190.53 45.8319V44.1963H189.978C188.684 44.1963 187.505 44.4816 187.505 45.3755C187.505 46.0601 187.961 46.3074 188.894 46.3074C189.635 46.3074 190.244 46.0792 190.53 45.8319ZM193.326 42.2755V47.2774C192.299 48.0571 190.644 48.4755 188.399 48.4755C186.401 48.4755 184.746 47.6577 184.746 45.8508C184.746 43.1312 187.391 42.4658 190.53 42.3707C190.473 41.1915 189.997 40.8871 188.95 40.8871C188.399 40.8871 186.934 41.1344 186.744 41.1344C186.287 41.1344 185.926 40.8492 185.621 40.0123L185.393 39.3275C186.573 38.8903 187.733 38.5859 188.989 38.5859C191.728 38.5859 193.326 39.613 193.326 42.2755Z" fill="#2C2A29"/>
</svg>
